<svg xmlns="http://www.w3.org/2000/svg" xmlns:xlink="http://www.w3.org/1999/xlink" width="2207.515" height="6407.354" viewBox="0 0 2207.515 6407.354">
  <defs>
    <clipPath id="clip-path">
      <path id="Path_349" data-name="Path 349" d="M1335.168,616.876H-141.151L-503.258,998.215v301.84H1704.249V998.215Z" transform="translate(503.258 -616.876)" fill="#401942"/>
    </clipPath>
    <linearGradient id="linear-gradient" x1="0.5" x2="0.5" y2="1" gradientUnits="objectBoundingBox">
      <stop offset="0" stop-color="#65ff3f"/>
      <stop offset="1" stop-color="#338020" stop-opacity="0.141"/>
    </linearGradient>
    <clipPath id="clip-path-2">
      <path id="Path_10" data-name="Path 10" d="M0,392H1437.818V773.742H0Zm0,0" transform="translate(0 -392)"/>
    </clipPath>
  </defs>
  <g id="BG" transform="translate(832.429 -286.18)">
    <g id="piso" transform="translate(-832.421 611.386)">
      <path id="Path_1" data-name="Path 1" d="M1344.52,625.011l-1478.7-13.41-369.08,386.614-.008,5695.533H1704.249V998.215Z" transform="translate(503.258 -611.601)" fill="#401942"/>
      <g id="Mask_Group_1" data-name="Mask Group 1" transform="translate(0 5.274)" clip-path="url(#clip-path)">
        <path id="Path_2" data-name="Path 2" d="M3372.791,1229.59l-477.44-301.966s-.021,0-.021-.006l-206-130.285-372.949-235.88a2.691,2.691,0,0,0-1.416-.383H554.287a2.712,2.712,0,0,0-1.416.383L179.921,797.327-503.533,1229.59a1.276,1.276,0,0,0-.591,1.693,2.227,2.227,0,0,0,2,.994H3371.384a2.228,2.228,0,0,0,2-.994A1.291,1.291,0,0,0,3372.791,1229.59ZM2668.2,1229.2l-118.138-117.407h312.364l151.89,117.407Zm-351.926,0-84.387-117.407H2544.8L2662.936,1229.2Zm-2109.942,0,118.14-117.407h312.9L553,1229.2Zm-351.4,0L6.823,1111.793H319.2L201.061,1229.2Zm-9.361-216.311H128.919L4.948,1108.719H-305.946Zm130.674-82.645H235.836L132.9,1009.814H-149.566ZM87.071,860.153H326.505L239.82,927.169H-18.892Zm95.181-60.2H404.379l-73.892,57.124H91.935ZM264.875,747.7H471.99l-63.63,49.182H187.118Zm72.409-45.791H531.23l-55.267,42.721H269.739Zm63.962-40.458h182.31L535.2,698.835H342.148Zm56.933-36H630.145l-42.606,32.924H406.111ZM509.157,593.2H671.851l-37.742,29.172H463.036Zm361.071-29.053L844.1,590.123H681.7l33.6-25.977Zm160.746,0L1012.3,590.123H849.372l26.13-25.977Zm160.662,0-11.2,25.977H1017.1l18.675-25.977Zm641.855,0,18.667,25.977H1688.839l-11.2-25.977Zm160.27,0,26.139,25.977H1856.973l-18.667-25.977Zm160.221,0,33.6,25.977h-162.4l-26.145-25.977Zm252.246,58.225H2235.152L2197.412,593.2H2360.1Zm-884.68,3.076,4.73,32.924H1342.992l4.732-32.924Zm-173.382-3.076,4.19-29.172h164.552l4.2,29.172Zm198.013,174.507h-223.1l7.071-49.182h208.965Zm-2.751-49.182h208.867l21.215,49.182H1550.492ZM1318.77,796.878H1095.762l21.206-49.182h208.873Zm-.433,3.076-8.214,57.124H1069.806l24.631-57.124Zm4.3,0h223.991l8.206,57.124h-240.4Zm228.3,0h223.892l24.631,57.124H1559.139Zm228.389,0h223.642l41.048,57.124H1803.945Zm-1.333-3.076L1756.783,747.7h208.623l35.35,49.182Zm-22.531-52.252-18.426-42.721h195.462l30.7,42.721Zm-4.488,0h-207.99l-6.139-42.721h195.712Zm-214.571-45.8-5.373-37.388h184.067l16.119,37.388Zm2.273,45.8H1330.59l6.139-42.721h195.795Zm-205.809-45.8H1138.042l16.119-37.388h184.076Zm-.441,3.076-6.139,42.721h-207.99l18.426-42.721Zm-218.61,42.721H906.071l30.7-42.721H1132.23Zm-1.324,3.07-21.217,49.182H868.514l35.35-49.182Zm-22.541,52.258-24.638,57.124H825.241l41.048-57.124Zm-25.962,60.2-28.9,67.009H774.872l48.163-67.009Zm4.5,0h241.2l-9.628,67.009H1039.578Zm245.508,0h241.291l9.63,67.009h-260.56Zm245.6,0h241.2l28.9,67.009H1569.216Zm245.689,0h240.95l48.171,67.009H1834.173Zm245.757,0h240.56l67.428,67.009H2099.2Zm-2.208-3.076-41.057-57.124h223.259l57.476,57.124Zm-43.264-60.2L1970.212,747.7h208.232l49.486,49.182Zm-37.557-52.252-30.7-42.721h195.063l42.981,42.721Zm-32.911-45.8-26.87-37.388h183.433l37.618,37.388Zm-4.815,0H1735.709l-16.117-37.388h183.834Zm-212.012-40.458-14.2-32.924h173.474l23.673,32.924Zm-4.491,0H1530.584l-4.732-32.924h173.723Zm-181.685,40.458H1337.171l5.38-37.388H1526.72Zm-193.413-40.458H1155.485l14.2-32.924H1343.41Zm-187.675,0H968.06l23.665-32.924H1165.2Zm-1.324,3.076-16.116,37.388H938.983l26.87-37.388ZM934.168,698.829H739.987L777.6,661.441H961.046Zm-2.207,3.076-30.7,42.721H693.908l42.981-42.721ZM899.049,747.7,863.7,796.878H641.331L690.809,747.7Zm-37.557,52.258-41.048,57.124H580.758l57.482-57.124Zm-43.264,60.2-48.163,67.009H510.24l67.428-67.009ZM767.85,930.245l-57.191,79.569H427.077l80.064-79.569Zm4.806,0h261.109l-34.319,79.569H715.465Zm265.6,0H1299.6l-11.438,79.569H1003.935Zm265.656,0h261.443l11.436,79.569H1292.474Zm265.748,0h261.351l34.316,79.569H1581.1Zm265.84,0h261.1l57.182,79.569H1869.8Zm265.906,0h260.709l80.073,79.569H2158.6Zm265.992,0h260.19l102.932,79.569H2447.465Zm-3.1-3.076-67.43-67.015H2536.9l86.695,67.009H2364.3Zm-70.52-70.091L2236.3,799.954h222.725l73.894,57.124Zm-60.563-60.2L2183.726,747.7h207.707l63.622,49.182Zm-52.585-52.252-42.98-42.721h194.546l55.258,42.721Zm-46.081-45.8-37.616-37.388h182.918l48.363,37.388Zm-40.705-40.458L2060.7,625.447h172.565l42.6,32.924Zm-5.274,0H1906.017l-23.665-32.924h173.08Zm-208.423-36L1859.18,593.2H2023l29.346,29.172Zm-4.815,0h-172.6L1690.154,593.2h164.211Zm-177.079,0H1525.419l-4.2-29.172h164.451Zm-354.391,0H1171.02l12.585-29.172h164.452Zm-177.331,0h-172.6L1014.9,593.2h164.2Zm-177.4,0H816.919L846.273,593.2h163.818Zm-2.207,3.076-23.674,32.924H780.694l33.135-32.924Zm-211.5,32.924H593.4l42.606-32.924H808.564Zm-3.1,3.076-37.617,37.388H541.051l48.362-37.388Zm-40.707,40.458-42.981,42.721H481.819l55.259-42.721ZM685.536,747.7l-49.478,49.182H414.216L477.838,747.7ZM632.96,799.954l-57.483,57.124H336.333l73.893-57.124Zm-60.573,60.2-67.428,67.009h-259.3l86.694-67.009Zm-70.519,70.091L421.8,1009.814H138.747l102.939-79.569Zm-83.155,82.645-96.424,95.829H10.8l123.97-95.829Zm5.273,0H708.451l-68.869,95.829H327.563Zm289.271,0H998.122l-41.332,95.829h-312.4Zm289.354,0h285.114l-13.778,95.829H961.3Zm289.422,0h285.2L1591,1108.719H1278.255Zm289.511,0h285.108l41.329,95.829h-312.66Zm289.6,0H2156l68.87,95.829H1912.463Zm289.671,0h284.473l96.416,95.829H2229.672Zm289.746,0H2734.5l123.956,95.829H2546.979Zm182.875-82.645h259.594l125.81,79.569H2736.36Zm-3.981-3.076-86.694-67.015h239.427l105.958,67.009H2629.452Zm-90.676-70.091-73.893-57.124h222.126l90.336,57.124Zm-77.874-60.2L2397.279,747.7h207.1l77.766,49.182Zm-67.595-52.252-55.258-42.721h193.929l67.545,42.721Zm-59.24-45.8L2285.7,661.441h182.3l59.116,37.388Zm-52.344-40.458-42.6-32.924h171.949l52.068,32.924Zm-52.427-36H2057.615L2028.271,593.2h163.285Zm-544.957-32.248h-163.56l-3.732-25.977h156.1Zm-167.866,0H1352.805l3.732-25.977h156.2Zm-167.984,0H1184.921l11.2-25.977H1352.23ZM841,593.2l-29.352,29.172H639.973L677.715,593.2ZM642.181,1111.793H955.475L904.848,1229.2H557.793Zm317.791,0h313.543L1256.639,1229.2h-347.3Zm317.851,0h313.635l16.867,117.407H1260.938Zm317.925,0H1909.3l50.626,117.407H1612.632Zm318.04,0h313.3l84.379,117.407H1964.423Zm826.561-98.9H3023.7l151.506,95.829H2864.3ZM2355.233,590.123h-161.8l-33.6-25.977h154.331ZM555.1,564.146H709.434l-33.6,25.977H514.021Zm-865.9,547.647H.976L-150.916,1229.2H-496.453ZM3020.181,1229.2l-151.89-117.407h311.775L3365.711,1229.2Zm0,0" transform="translate(-332.769 -561.07)" fill="url(#linear-gradient)"/>
      </g>
    </g>
    <g id="montanhas" transform="translate(-490.971 286.18)">
      <path id="montanhas-2" data-name="montanhas" d="M286.772,562.577l70.378-58.806,35.37,19.307ZM1463.963,714.346,1359.85,670.759l-57.122-74.881-113.834,26.665-47.226-44.4-146.5-28.089L946.874,470.82l-85.863,40.456-63.321-84.848L714.5,392.715l-44,42.7-74.594,43.273-99.813-25.853L392.521,523.078l-105.749,39.5L149.209,577.724l-65.255,72.35-73.52,43.273L-25.852,751.79l24.227-5.234,54.119,13.116L233.186,729.7l129.256,21.078L518.53,734.385l95.709-2.345,199.919,24.822L896,747.027l104.661,12.644,102.864-22.944,44.279,14.517,107.781-16.388,126.121,34.657,52.33-9.835,43.385,12.18,26.135-20.062Zm0,0" transform="translate(25.852 -391.386)" fill="#401942"/>
      <g id="Group_4" data-name="Group 4" transform="translate(45.889)" clip-path="url(#clip-path-2)">
        <path id="Path_9" data-name="Path 9" d="M1504.448,751.551l-39.6-37.439c-.021-.02-.055-.02-.076-.043a.863.863,0,0,0-.11-.065c-.021-.007-.029-.045-.05-.05l-103.919-43.507L1303.7,595.734c-.028-.045-.09-.045-.124-.08a.707.707,0,0,0-.222-.139.686.686,0,0,0-.291-.05c-.057,0-.1-.037-.16-.03l-113.433,26.58-46.914-44.1c0-.008-.014-.008-.021-.015s-.007-.015-.021-.022c-.034-.028-.083-.028-.117-.05a.962.962,0,0,0-.229-.117L996.01,549.68,947.9,470.756c-.021-.03-.064-.037-.083-.065a.705.705,0,0,0-.215-.175.783.783,0,0,0-.258-.1c-.033-.007-.062-.043-.1-.043-.055,0-.1.043-.158.058s-.126-.015-.188.015L861.6,510.625,798.67,426.292c-.034-.05-.09-.065-.138-.108a.714.714,0,0,0-.138-.11c-.021-.007-.041-.037-.062-.05l-83.186-33.708a.844.844,0,0,0-.438-.037.026.026,0,0,1-.012-.006c-.021.006-.029.035-.05.035a.781.781,0,0,0-.332.175l-43.85,42.584-74.319,43.113-99.508-25.773c-.028-.007-.048.015-.076.015a.738.738,0,0,0-.382.007c-.034.013-.055.05-.091.072s-.055,0-.083.013l-103.155,69.99-34.982-19.1a.761.761,0,0,0-.866.087l-70.192,58.652L149.476,577.276c-.062.007-.1.058-.16.08a.748.748,0,0,0-.215.11c-.042.035-.09.028-.125.065L83.8,649.791,10.388,693a.484.484,0,0,0-.083.087.906.906,0,0,0-.09.065c-.014.022-.028.037-.042.058s-.049.037-.062.06l-36.285,58.442a.866.866,0,0,0,.014.929.776.776,0,0,0,.818.347L-1.282,747.8l53.953,13.066c.035.013.069,0,.1.008s.048.013.076.013.028-.013.042-.013a.322.322,0,0,0,.083.006l180.559-29.954,129.13,21.048a.4.4,0,0,0,.1.007c.007,0,.014.007.028.007s.005-.007.02-.007h.057L518.894,735.59l95.6-2.345L757.81,751.022a.177.177,0,0,0,.062.015c.014,0,.027-.007.041-.007l56.471,7.01a.758.758,0,0,0,.124.03c.014,0,.028-.008.043-.008h.048l81.661-9.835,104.661,12.65c.014,0,.026-.006.048-.006s.028.013.043.013.027-.013.048-.013c.041-.008.076,0,.117-.008l102.664-22.9,44.072,14.452a1.366,1.366,0,0,0,.181.015c.021,0,.034.02.062.02a.246.246,0,0,0,.069-.007c.007,0,.007,0,.014-.007s.021.007.028.007l107.627-16.366,125.969,34.614a.629.629,0,0,0,.119,0,.327.327,0,0,0,.082.02c.021,0,.036-.013.057-.013s.062.007.091,0l52.148-9.807,43.213,12.13a.651.651,0,0,0,.2.035.674.674,0,0,0,.2-.028c.041-.007.062-.06.1-.074.057-.028.126-.02.181-.065l26.134-20.062a.842.842,0,0,0,.062-1.276Zm-118.556,16.765,75.489-50.625-27.466,41.6Zm-313.65-25.012-53.169-76.419,82.985,69.771Zm-310.43,6.555L884.2,711.77l-69.88,44.609Zm-242.6-15.939L483.2,694.328l126.059,37.387ZM53.226,759.143,12.454,694.857l215.922,35.231ZM84.318,651.417l50.666,27.03L14.6,692.44ZM149.8,579.061l56.864,17.7L87.445,648.2ZM670.85,436.736l32.125,16.2L601.553,476.962Zm516.821,185.838L1121.95,644.3l20.449-64.284Zm274.41,92.657-79.8,53.515-48.273-73.627ZM1331,692.427l-139.31-69.214,110.847-25.97Zm-209.078-46.372,64.908-21.448-44.716,55.1ZM137.577,679.825,228.7,728.44,16.837,693.871Zm-.028-1.893L86.217,650.548l119.866-51.714Zm1.477.784,69.548-80.275L232.44,728.557Zm70.948-81.568L285.8,564.437l-52.06,162.35Zm77.1-31.4,18.03,63.864-69.25,95.866ZM791.911,427.693l-84.691,24.14,14.886-23.711Zm69.221,84.935L926.4,583.619,802.332,533.546Zm151.111,149.758-117.759,44.13L966.6,649.029Zm-44.809-14.852,27.876-93.586,18.555,107.167Zm-676.223-85.21L391,525.053,367.089,566.04Zm74.436,5.32-59.272,60.562L288.21,563.855ZM392.9,525.025l25.144,39.637-49.058,1.356ZM583.955,558.63l-112.434,85,80-118.867ZM394.369,524.3H546.033L419.85,564.479Zm23.942,44.529-9.6,81.429-55.264,19.053Zm-8.952,82.967,66.919,39.312L354.845,670.6Zm10.672-83.874L466.716,646.5l-56.359,3.491Zm.707-1.975,128.679-40.971L468.152,645.728Zm159.958-2.78L480.945,690.916l-11.913-43.33Zm4.557-3.179,83.914,87.642-186.48,43.71Zm1.026-1.291,31.6-38.513,50.54,124.3Zm10.477-77.045L616.5,517.4l-23.415-5.32Zm19.874,37.481-30.2,36.813,6.427-42.2ZM721.4,522.4l-100.936-4.523L704.9,454.62Zm-102.06-2.9,101.893,4.565-35.244,83.469c-.007.007-.007.015-.014.022l-15.213,38.388Zm103.592,4.69,76.336,10.045L813.711,648.95l-125.9-41.582Zm76.779,8.412-69.45-9.138,86.542-7.237Zm14.859,118.5,72.542,56.9L727.779,692.15Zm2.462-.16,84.56-1.131-12.232,57.863ZM965,647.3l-61.171.812L929.6,587.545Zm-.99,1.691L891.127,707.08,903.221,649.8Zm-61.92-.849-84.15,1.124L927.8,587.655Zm28.227-62.551,16.761-108.241L965.23,644.5ZM815.312,648.834,800.944,534.78l126.622,51.1ZM803.337,531.411,819.4,516.017l35.606-2.982ZM724.255,522.3l73.389-93.659,20.414,85.806Zm-1.427-.82-16.469-67.66,89.462-25.5ZM705.1,452.152l-31.6-15.939,46.513-7.81ZM618.354,517.4,597.5,479.639l104.2-24.685Zm-26.875-5.342L554.2,521.868l40.987-40.573Zm-.257,1.8-6.573,43.128-31.668-33.068Zm-45.279,8.768H402.7l92.45-15.888Zm-49.931-17.369L497.19,455.5l51.949,66.376ZM306.106,631l43.912,39.674L236.164,727.831Zm1.062-1.256,60.692-62.013,50.118-1.386L351.316,669.628Zm170.761,63.342L363.422,749.918l-11-78.032Zm-65.714-41.53,55.3-3.426,11.779,42.831ZM668.93,649.4l-54.673,82.055L483.865,692.782Zm2-.08L723.057,692.4l-106.409,38.4Zm.8-1.474,15.019-37.886,35.78,79.868Zm53.357,43.737-36.881-82.321,124.213,41.023Zm160.6,17.971L758.239,749.221l-32.028-55.547Zm128.2-46.015-13.521,95.307L892.043,709.207Zm106.2-18.713-101.54,16.026,122-80.362Zm-.394,1.75-16.357,89.006-86.535-72.755Zm1.4,1.249,19.962,33.263-35.709,52.4Zm68.362-23.865,138.727,68.916-184.525-12.484Zm139.912,70.68-73.458,39.666L1146.345,682.25Zm-313.92-33.721L996.516,551.488l143.338,27.487ZM966.79,644.065,948.409,474.711l46.236,75.855Zm-37.838-60.1-66.227-72.031,83.465-39.324ZM819.673,514.311l-19.949-83.874,60.083,80.515Zm-97.351-87.859-6.387-32.015L793.817,426Zm-1.6.145-47.386,7.941,41.028-39.819ZM551.49,522.237l-52.9-67.6,96.055,24.874Zm-57.072-17.079-97.894,16.825,99.08-67.2Zm-285.4,90.589L153.629,578.5l128.118-14.123ZM51.063,758.766-.3,746.319,11.137,695.8Zm299.774-86.641,11,78.025L236.205,729.669ZM480.425,693.7l36.735,40.4L367.306,749.838Zm243.6.117,6,52.1L618.146,732.034Zm1.921,2.635,30.4,52.723-24.684-3.057ZM889.29,710.476l6.129,36.2-77.431,9.326Zm1.637.052L995.8,758.584l-98.753-11.91Zm124.456-46.1,55.14,79.258-68.555,15.3Zm126.038,19.017,5.824,67-42.082-13.791Zm1.525-.974,110.174,52.338-104.253,15.851Zm189.1,12.607,48.135,73.424-122.023-33.533Zm131.9,21.665,12.717,54.306-40.972-11.5Zm-129.677-23.284,26.063-21.361,97.277,40.733Zm24.794-22.457-26.34,21.585-27.6-92.315ZM357.591,505.152l33.283,18.166-99.5,37.162ZM8.939,698.241-1.927,746.224l-21.856,4.718Zm1469.326,72.573-12.552-53.622,36.931,34.912Zm0,0" transform="translate(-20.387 -391.772)" fill="#65ff3f"/>
      </g>
    </g>
  </g>
</svg>
