<svg xmlns="http://www.w3.org/2000/svg" xmlns:xlink="http://www.w3.org/1999/xlink" width="2468.954" height="766.609" viewBox="0 0 2468.954 766.609">
  <defs>
    <clipPath id="clip-path">
      <path id="Path_349" data-name="Path 349" d="M1552.9,616.876H-98.265L-503.258,998.215H1965.7Z" transform="translate(503.258 -616.876)" fill="#401942"/>
    </clipPath>
    <clipPath id="clip-path-2">
      <path id="Path_10" data-name="Path 10" d="M0,392H1608.106V773.742H0Zm0,0" transform="translate(0 -392)"/>
    </clipPath>
    <clipPath id="clip-path-3">
      <rect id="Rectangle_5" data-name="Rectangle 5" width="139.627" height="34.454"/>
    </clipPath>
    <clipPath id="clip-path-4">
      <path id="Path_51" data-name="Path 51" d="M0,1H138.827V31.827H0ZM0,1" transform="translate(0 -1)"/>
    </clipPath>
    <clipPath id="clip-path-5">
      <rect id="Rectangle_6" data-name="Rectangle 6" width="154.134" height="32.64" opacity="0.5"/>
    </clipPath>
    <clipPath id="clip-path-6">
      <path id="Path_53" data-name="Path 53" d="M.32,0H153.512V30.827H.32Zm0,0" transform="translate(-0.32)"/>
    </clipPath>
    <clipPath id="clip-path-9">
      <rect id="Rectangle_7" data-name="Rectangle 7" width="155.947" height="30.827"/>
    </clipPath>
    <clipPath id="clip-path-10">
      <path id="Path_67" data-name="Path 67" d="M1,0H153.831V29.013H1ZM1,0" transform="translate(-1)"/>
    </clipPath>
    <clipPath id="clip-path-11">
      <path id="Path_90" data-name="Path 90" d="M419.781,787.148H428.2v41.438h-8.416Zm0,0" transform="translate(-419.781 -787.148)"/>
    </clipPath>
  </defs>
  <g id="BG" transform="translate(832.421 -286.18)">
    <g id="piso" transform="translate(-177.423)">
      <path id="Path_1" data-name="Path 1" d="M1563.363,625.011-90.466,611.6-503.258,998.215H1965.7Z" transform="translate(-151.74 -0.215)" fill="#401942"/>
      <g id="Mask_Group_1" data-name="Mask Group 1" transform="translate(-654.998 616.661)" clip-path="url(#clip-path)">
        <path id="Path_2" data-name="Path 2" d="M3831.971,1229.59,3297.985,927.624s-.024,0-.024-.006L3067.567,797.333l-417.12-235.88a3.286,3.286,0,0,0-1.583-.383H679.656a3.311,3.311,0,0,0-1.584.383L260.952,797.327l-764.4,432.263c-.744.418-1.007,1.1-.661,1.693a2.589,2.589,0,0,0,2.235.994H3830.4a2.59,2.59,0,0,0,2.241-.994A1.231,1.231,0,0,0,3831.971,1229.59Zm-788.038-.389L2911.8,1111.793h349.359L3431.041,1229.2Zm-393.607,0-94.382-117.407h349.97l132.13,117.407Zm-2359.834,0,132.132-117.407h349.96L678.212,1229.2Zm-393.02,0L67.353,1111.793H416.726L284.6,1229.2ZM-113,1012.89H203.909L65.257,1108.719H-282.459ZM33.153,930.245H323.49l-115.128,79.569h-315.92Zm123.952-70.091H424.9l-96.952,67.015H38.593Zm106.454-60.2H511.994L429.35,857.077h-266.8ZM355.968,747.7H587.612l-71.166,49.182H269Zm80.985-45.791H653.869l-61.812,42.721H361.408Zm71.538-40.458h203.9L658.3,698.835H442.393Zm63.676-36H764.5l-47.652,32.924H513.931ZM629.181,593.2H811.144l-42.211,29.172H577.6Zm403.835-29.053-29.225,25.977H822.156l37.581-25.977Zm179.783,0-20.887,25.977H1009.689l29.225-25.977Zm179.69,0-12.53,25.977H1197.288l20.887-25.977Zm717.874,0,20.878,25.977H1948.579l-12.531-25.977Zm179.251,0,29.235,25.977H2136.626l-20.877-25.977Zm179.2,0,37.579,25.977H2324.754l-29.242-25.977Zm282.121,58.225H2559.6L2517.385,593.2h181.954Zm-989.458,3.076,5.29,32.924H1561.772l5.292-32.924Zm-193.916-3.076,4.686-29.172h184.041l4.7,29.172Zm221.465,174.507H1539.5l7.908-49.182h233.714Zm-3.077-49.182h233.6l23.728,49.182H1793.847Zm-251.265,49.182H1285.261l23.718-49.182H1542.59Zm-.484,3.076-9.187,57.124H1256.231l27.548-57.124Zm4.806,0h250.52l9.177,57.124H1529.828Zm255.338,0h250.408l27.548,57.124H1803.518Zm255.438,0h250.129l45.91,57.124h-268.5Zm-1.49-3.076L2024.57,747.7H2257.9l39.537,49.182Zm-25.2-52.252-20.608-42.721h218.612l34.341,42.721Zm-5.02,0H1785.445l-6.866-42.721h218.892Zm-239.984-45.8-6.01-37.388h205.867l18.028,37.388Zm2.542,45.8H1547.9l6.866-42.721h218.984Zm-230.184-45.8H1332.549l18.028-37.388h205.877Zm-.494,3.076-6.866,42.721H1310.46l20.608-42.721Zm-244.5,42.721H1073.1l34.338-42.721h218.6Zm-1.481,3.07-23.73,49.182H1031.1l39.537-49.182Zm-25.211,52.258L1251.2,857.077H982.7l45.91-57.124Zm-29.036,60.2L1217.4,927.162H926.366l53.867-67.009Zm5.03,0h269.767l-10.768,67.009H1222.423Zm274.584,0H1799.2l10.771,67.009h-291.42Zm274.687,0h269.767l32.318,67.009H1814.789Zm274.787,0H2348.3l53.876,67.009H2111.126Zm274.864,0h269.051l75.414,67.009h-290.6Zm-2.469-3.076-45.919-57.124h249.7l64.284,57.124Zm-48.388-60.2L2263.278,747.7h232.894l55.347,49.182Zm-42.006-52.252-34.341-42.721h218.166l48.071,42.721ZM2224,698.829l-30.052-37.388h205.158l42.073,37.388Zm-5.385,0H2001l-18.025-37.388h205.607Zm-237.122-40.458-15.886-32.924h194.019l26.478,32.924Zm-5.023,0h-204.89l-5.292-32.924h194.3Zm-203.2,40.458H1555.261l6.017-37.388H1767.26Zm-216.32-40.458H1352.058l15.884-32.924h194.3Zm-209.9,0h-204.61l26.468-32.924h194.026Zm-1.481,3.076-18.025,37.388H1109.914l30.052-37.388Zm-241.035,37.382H887.35l42.072-37.388H1134.59Zm-2.468,3.076-34.341,42.721H835.813l48.071-42.721ZM1065.251,747.7l-39.537,49.182H777.01L832.347,747.7Zm-42.006,52.258-45.91,57.124H709.263l64.29-57.124Zm-48.388,60.2-53.867,67.009h-290.6l75.414-67.009Zm-56.345,70.091-63.965,79.569H537.38l89.547-79.569Zm5.375,0h292.034l-38.383,79.569H859.923Zm297.054,0h292.3l-12.793,79.569H1182.559Zm297.119,0h292.407l12.79,79.569H1505.271Zm297.222,0h292.3l38.381,79.569H1828.076Zm297.324,0h292.025l63.954,79.569H2150.971Zm297.4,0h291.587l89.556,79.569H2473.972Zm297.494,0h291.007l115.123,79.569H2797.054Zm-3.466-3.076-75.417-67.015h268.464l96.962,67.009h-290.01Zm-78.872-70.091-64.281-57.124h249.1l82.645,57.124Zm-67.737-60.2L2502.079,747.7h232.307l71.157,49.182Zm-58.812-52.252-48.071-42.721H2668.13l61.8,42.721Zm-51.539-45.8L2405,661.441h204.582l54.091,37.388Zm-45.526-40.458-37.062-32.924h193l47.644,32.924Zm-5.9,0H2191.479l-26.468-32.924h193.58Zm-233.108-36L2139.094,593.2h183.22l32.821,29.172Zm-5.385,0H1964.117L1950.051,593.2h183.659Zm-198.052,0h-193.3l-4.7-29.172h183.928Zm-396.364,0H1369.432l14.076-29.172h183.928Zm-198.333,0H1171.371l23.448-29.172h183.649Zm-198.414,0h-192.6l32.831-29.172h183.22Zm-2.468,3.076-26.478,32.924H932.878l37.06-32.924ZM926.981,658.371H723.4l47.652-32.924H964.049Zm-3.466,3.076-42.072,37.388H664.853l54.089-37.388Zm-45.528,40.458-48.071,42.721H598.606l61.8-42.721ZM826.45,747.7l-55.338,49.182H523L594.153,747.7Zm-58.8,52.258-64.291,57.124H435.889l82.644-57.124Zm-67.747,60.2-75.414,67.009H334.475l96.962-67.009Zm-78.87,70.091-89.547,79.569H214.9l115.13-79.569Zm-93,82.645-107.844,95.829H71.8l138.653-95.829Zm5.9,0H852.079l-77.026,95.829H426.08Zm323.531,0h318.6l-46.227,95.829h-349.4Zm323.623,0H1499.96l-15.409,95.829H1134.87Zm323.7,0h318.975l15.4,95.829H1489.368Zm323.8,0h318.875l46.225,95.829h-349.69Zm323.895,0h318.6l77.027,95.829H2198.689Zm323.979,0h318.164l107.834,95.829H2553.467Zm324.063,0H3118.09l138.636,95.829H2908.354Zm204.534-82.645h290.339l140.71,79.569H3120.165Zm-4.453-3.076-96.961-67.015h267.784l118.508,67.009h-289.33Zm-101.415-70.091-82.645-57.124h248.434L3166,857.077Zm-87.1-60.2L2740.925,747.7h231.627l86.976,49.182Zm-75.6-52.252-61.8-42.721h216.9l75.545,42.721Zm-66.256-45.8-54.09-37.388h203.893l66.117,37.388Zm-58.543-40.458-47.644-32.924h192.314l58.235,32.924Zm-58.636-36H2361.031L2328.212,593.2h182.624Zm-609.5-32.248H1760.616l-4.174-25.977h174.584Zm-187.747,0H1572.747l4.174-25.977h174.7Zm-187.88,0H1384.98l12.53-25.977H1572.1ZM1000.326,593.2,967.5,622.371H775.491L817.7,593.2ZM777.96,1111.793h350.4L1071.736,1229.2H683.578Zm355.429,0h350.678L1465.192,1229.2H1076.756Zm355.5,0h350.78l18.865,117.407H1470Zm355.579,0H2195.15l56.623,117.407H1863.347Zm355.708,0h350.408l94.372,117.407H2256.8Zm924.455-98.9h316.909l169.449,95.829H3263.261ZM2693.9,590.123H2512.932l-37.582-25.977h172.61ZM680.569,564.146H853.178L815.6,590.123H634.622ZM-287.89,1111.793h348.7L-109.067,1229.2H-495.529ZM3437.6,1229.2,3267.72,1111.793h348.7L3824.053,1229.2Zm0,0" transform="translate(-431.903 -561.07)" fill="#97dcda"/>
      </g>
    </g>
    <g id="montanhas" transform="translate(-424.679 -105.82)">
      <path id="montanhas-2" data-name="montanhas" d="M323.8,562.577l78.714-58.806,39.559,19.307ZM1640.41,714.346l-116.443-43.587-63.887-74.881-127.316,26.665-52.819-44.4-163.85-28.089-54.014-79.238-96.032,40.456-70.82-84.848-93.04-33.713-49.214,42.7-83.429,43.273L557.91,452.833,442.071,523.078,323.8,562.577,169.943,577.724l-72.984,72.35L14.731,693.348-25.852,751.79l27.1-5.234,60.529,13.116L263.865,729.7,408.43,750.774,583,734.385l107.044-2.345,223.6,24.822,91.535-9.835,117.056,12.644,115.047-22.944,49.524,14.517,120.547-16.388,141.059,34.657,58.527-9.835,48.523,12.18,29.23-20.062Zm0,0" transform="translate(0 0.614)" fill="#401942"/>
      <g id="Group_4" data-name="Group 4" transform="translate(25.472 392)" clip-path="url(#clip-path-2)">
        <path id="Path_9" data-name="Path 9" d="M1685.742,751.551l-44.291-37.439c-.024-.02-.062-.02-.085-.043a1,1,0,0,0-.123-.065c-.024-.007-.032-.045-.056-.05l-116.226-43.507-63.739-74.714c-.032-.045-.1-.045-.139-.08a.811.811,0,0,0-.248-.139.849.849,0,0,0-.326-.05c-.063,0-.109-.037-.178-.03l-126.868,26.58-52.47-44.1c0-.008-.016-.008-.024-.015s-.008-.015-.024-.022c-.038-.028-.093-.028-.131-.05a1.131,1.131,0,0,0-.256-.117L1117.088,549.68l-53.812-78.924c-.024-.03-.072-.037-.093-.065a.778.778,0,0,0-.24-.175.938.938,0,0,0-.288-.1c-.037-.007-.069-.043-.109-.043-.061,0-.115.043-.177.058s-.141-.015-.211.015l-95.4,40.181-70.385-84.333c-.038-.05-.1-.065-.155-.108a.791.791,0,0,0-.155-.11c-.024-.007-.046-.037-.07-.05l-93.038-33.708a1.05,1.05,0,0,0-.49-.037.031.031,0,0,1-.014-.006c-.024.006-.032.035-.056.035a.913.913,0,0,0-.371.175l-49.043,42.584-83.121,43.113L558.571,452.407c-.032-.007-.054.015-.085.015a.92.92,0,0,0-.427.007c-.038.013-.062.05-.1.072s-.061,0-.093.013l-115.373,69.99-39.125-19.1a.932.932,0,0,0-.969.087l-78.505,58.652-153.6,15.127c-.07.007-.109.058-.178.08a.876.876,0,0,0-.24.11c-.046.035-.1.028-.14.065l-72.89,72.261L14.734,693a.513.513,0,0,0-.093.087,1.018,1.018,0,0,0-.1.065c-.016.022-.031.037-.047.058a.557.557,0,0,0-.07.06l-40.583,58.442a.79.79,0,0,0,.015.929.914.914,0,0,0,.915.347L1.682,747.8l60.343,13.066a.81.81,0,0,0,.116.008c.031,0,.054.013.085.013.015,0,.031-.013.046-.013a.4.4,0,0,0,.093.006l201.944-29.954,144.424,21.048a.5.5,0,0,0,.109.007c.008,0,.016.007.032.007s.006-.007.022-.007h.064L583.465,735.59l106.919-2.345,160.292,17.776a.218.218,0,0,0,.07.015c.016,0,.03-.007.046-.007l63.159,7.01a.931.931,0,0,0,.139.03c.016,0,.032-.008.048-.008h.054l91.332-9.835,117.056,12.65c.016,0,.03-.006.054-.006s.032.013.048.013.03-.013.054-.013c.045-.008.085,0,.131-.008l114.823-22.9,49.292,14.452a1.707,1.707,0,0,0,.2.015c.024,0,.038.02.069.02a.306.306,0,0,0,.078-.007c.008,0,.008,0,.016-.007s.024.007.032.007l120.374-16.366,140.888,34.614a.787.787,0,0,0,.133,0,.4.4,0,0,0,.091.02c.024,0,.04-.013.063-.013s.07.007.1,0l58.325-9.807,48.331,12.13a.805.805,0,0,0,.224.035.837.837,0,0,0,.219-.028c.045-.007.069-.06.115-.074.063-.028.141-.02.2-.065l29.23-20.062a.8.8,0,0,0,.363-.63A.774.774,0,0,0,1685.742,751.551Zm-132.6,16.765,84.429-50.625-30.719,41.6Zm-350.8-25.012-59.466-76.419,92.814,69.771Zm-347.2,6.555L992.037,711.77l-78.156,44.609ZM583.822,733.922l-40.274-39.594,140.989,37.387ZM62.645,759.143l-45.6-64.286,241.5,35.231ZM97.419,651.417l56.667,27.03L19.449,692.44Zm73.24-72.356,63.6,17.7L100.916,648.2ZM753.418,436.736l35.93,16.2L675.913,476.962Zm578.031,185.838-73.5,21.723,22.871-64.284Zm306.91,92.657-89.248,53.515-53.991-73.627Zm-146.6-22.8-155.81-69.214,123.975-25.97Zm-233.841-46.372,72.6-21.448-50.012,55.1ZM156.986,679.825,258.9,728.44,21.946,693.871Zm-.031-1.893L99.544,650.548l134.063-51.714Zm1.652.784,77.785-80.275,26.693,130.116Zm79.351-81.568,84.809-32.711-58.225,162.35Zm86.228-31.4,20.165,63.864L266.9,725.48Zm564.63-138.057L794.1,451.833l16.649-23.711Zm77.419,84.935,73,70.992L900.472,533.546Zm169.008,149.758-131.706,44.13,80.653-57.485Zm-50.115-14.852,31.177-93.586,20.752,107.167Zm-756.312-85.21,111.613-37.271L413.681,566.04Zm83.252,5.32-66.292,60.562-20.318-64.351Zm30.477-42.619,28.122,39.637L415.8,566.018ZM656.231,558.63l-125.75,85,89.48-118.867ZM444.191,524.3H613.818L472.69,564.479Zm26.778,44.529-10.733,81.429-61.809,19.053Zm-10.012,82.967L535.8,691.106,399.986,670.6Zm11.936-83.874L525.107,646.5l-63.034,3.491Zm.79-1.975L617.6,524.974l-90.89,120.753Zm178.9-2.78L541.021,690.916,527.7,647.586Zm5.1-3.179,93.852,87.642-208.565,43.71Zm1.148-1.291,35.341-38.513,56.526,124.3Zm11.717-77.045L692.634,517.4l-26.188-5.32Zm22.228,37.481L659,555.943l7.189-42.2ZM809.954,522.4l-112.891-4.523L791.5,454.62Zm-114.148-2.9,113.961,4.565-39.418,83.469c-.008.007-.008.015-.016.022l-17.014,38.388Zm115.861,4.69,85.376,10.045L913.2,648.95l-140.81-41.582Zm85.873,8.412-77.675-9.138,96.792-7.237Zm16.619,118.5,81.134,56.9-178.2-15.859Zm2.754-.16,94.575-1.131-13.681,57.863Zm165.494-3.657-68.416.812,28.827-60.562Zm-1.108,1.691L999.784,707.08,1013.31,649.8Zm-69.254-.849-94.116,1.124L1040.8,587.655Zm31.57-62.551,18.745-108.241,20.3,167.155ZM914.989,648.834,898.92,534.78l141.618,51.1ZM901.6,531.411l17.969-15.394,39.823-2.982ZM813.148,522.3l82.081-93.659,22.831,85.806Zm-1.6-.82-18.42-67.66,100.058-25.5Zm-19.823-69.323-35.347-15.939L808.4,428.4ZM694.7,517.4l-23.328-37.756,116.544-24.685Zm-30.058-5.342-41.7,9.814,45.841-40.573Zm-.288,1.8-7.352,43.128-35.418-33.068Zm-50.641,8.768H453.5l103.4-15.888Zm-55.845-17.369L559.19,455.5l58.1,66.376ZM345.475,631l49.113,39.674L267.25,727.831Zm1.187-1.256,67.88-62.013,56.053-1.386L396.039,669.628Zm190.985,63.342L409.579,749.918l-12.3-78.032Zm-73.5-41.53L526,648.13l13.175,42.831ZM751.27,649.4l-61.148,82.055L544.287,692.782Zm2.241-.08,58.3,43.078L692.8,730.793Zm.9-1.474,16.8-37.886,40.018,79.868Zm59.677,43.737-41.249-82.321,138.925,41.023ZM993.7,709.555,851.157,749.221l-35.821-55.547Zm143.383-46.015-15.122,95.307-121.158-49.639Zm118.777-18.713L1142.3,660.852l136.453-80.362Zm-.441,1.75-18.295,89.006-96.784-72.755Zm1.567,1.249,22.327,33.263-39.938,52.4Zm76.458-23.865,155.157,68.916-206.38-12.484Zm156.483,70.68-82.158,39.666L1285.229,682.25Zm-351.1-33.721-21.179-109.432,160.314,27.487Zm-54.425-16.855L1063.85,474.711l51.712,75.855Zm-42.319-60.1-74.07-72.031,93.35-39.324ZM919.867,514.311l-22.311-83.874,67.2,80.515ZM810.986,426.451l-7.143-32.015L890.949,426Zm-1.793.145-53,7.941,45.887-39.819ZM619.921,522.237l-59.17-67.6,107.432,24.874Zm-63.832-17.079L446.6,521.983l110.814-67.2Zm-319.2,90.589L174.939,578.5l143.291-14.123ZM60.225,758.766,2.775,746.319l12.8-50.518ZM395.5,672.125l12.3,78.025L267.3,729.669ZM540.439,693.7l41.086,40.4-167.6,15.736Zm272.453.117,6.708,52.1L694.472,732.034Zm2.148,2.635,34,52.723-27.608-3.057Zm182.689,14.021,6.855,36.2-86.6,9.326Zm1.83.052,117.288,48.056L1006.4,746.674Zm139.2-46.1,61.67,79.258-76.675,15.3Zm140.965,19.017,6.514,67-47.066-13.791Zm1.706-.974,123.223,52.338-116.6,15.851Zm211.5,12.607,53.836,73.424-136.475-33.533Zm147.525,21.665,14.223,54.306-45.825-11.5Zm-145.035-23.284,29.15-21.361,108.8,40.733Zm27.731-22.457-29.46,21.585-30.874-92.315ZM403.057,505.152l37.225,18.166L328.995,560.481ZM13.113,698.241.961,746.224l-24.444,4.718Zm1643.346,72.573-14.038-53.622,41.3,34.912Zm0,0" transform="translate(-25.917 -391.772)" fill="#97dcda"/>
      </g>
    </g>
    <g id="retangulos" transform="translate(-348.043)">
      <g id="ret" transform="translate(0 729)">
        <g id="ret-2" data-name="ret">
          <g id="Group_110" data-name="Group 110" transform="translate(0 54.4)">
            <g id="Group_109" data-name="Group 109">
              <g id="Group_108" data-name="Group 108" clip-path="url(#clip-path-3)">
                <g id="Group_107" data-name="Group 107" transform="translate(0 1.813)" clip-path="url(#clip-path-4)">
                  <path id="Path_50" data-name="Path 50" d="M-7.516,1.836H144.926V30.687H-7.516Zm0,0" transform="translate(-6.113 -0.32)" fill="#97dcda"/>
                </g>
              </g>
            </g>
          </g>
          <g id="Group_114" data-name="Group 114" transform="translate(137.814 27.2)">
            <g id="Group_113" data-name="Group 113">
              <g id="Group_112" data-name="Group 112" clip-path="url(#clip-path-5)">
                <g id="Group_111" data-name="Group 111" transform="translate(0.581)" opacity="0.5" clip-path="url(#clip-path-6)">
                  <path id="Path_52" data-name="Path 52" d="M.551.91H153V29.761H.551Zm0,0" transform="translate(-0.133 0.74)" fill="#97dcda"/>
                </g>
              </g>
            </g>
          </g>
          <g id="retangulos-2" data-name="retangulos" transform="translate(138.813)">
            <path id="Path_54" data-name="Path 54" d="M76.551,776.746H229V805.6H76.551Zm0,0" transform="translate(-76.551 -690.166)" fill="#fb33ee"/>
            <path id="Path_55" data-name="Path 55" d="M247.965,745.531H347.6V764.4H247.965Zm0,0" transform="translate(62.868 -715.555)" fill="#9a48ff"/>
            <path id="Path_56" data-name="Path 56" d="M244.688,744.91h152.44v28.85H244.688Zm0,0" transform="translate(60.202 -716.06)" fill="#fb33ee"/>
            <path id="Path_57" data-name="Path 57" d="M244.688,808.582h152.44v28.85H244.688Zm0,0" transform="translate(60.202 -664.273)" fill="#fb33ee"/>
            <path id="Path_58" data-name="Path 58" d="M328.754,729h152.44v28.85H328.754Zm0,0" transform="translate(128.577 -729)" fill="#97dcda"/>
            <path id="Path_59" data-name="Path 59" d="M328.754,760.836h152.44v28.85H328.754Zm0,0" transform="translate(128.577 -703.106)" fill="#97dcda"/>
            <path id="Path_60" data-name="Path 60" d="M412.82,744.91H565.269v28.85H412.82Zm0,0" transform="translate(196.951 -716.06)" fill="#fb33ee"/>
            <path id="Path_61" data-name="Path 61" d="M412.82,776.746H565.269V805.6H412.82Zm0,0" transform="translate(196.951 -690.166)" fill="#fb33ee"/>
            <path id="Path_62" data-name="Path 62" d="M351.387,792.672H720.721v57.7H351.387Zm0,0" transform="translate(146.985 -677.213)" fill="#9a48ff"/>
            <path id="Path_344" data-name="Path 344" d="M351.387,792.672H720.721v57.7H351.387Zm0,0" transform="translate(209.985 -624.213)" fill="#9a48ff"/>
            <path id="Path_63" data-name="Path 63" d="M467.77,745.531H567.4V764.4H467.77Zm0,0" transform="translate(241.644 -715.555)" fill="#9a48ff"/>
            <path id="Path_64" data-name="Path 64" d="M496.891,760.836h152.44v28.85H496.891Zm0,0" transform="translate(265.33 -703.106)" fill="#fffc69"/>
            <path id="Path_65" data-name="Path 65" d="M522.715,755.938h99.634V774.8H522.715Zm0,0" transform="translate(286.333 -707.09)" fill="#97dcda"/>
          </g>
          <g id="Group_833" data-name="Group 833" transform="translate(-8 151.214)" opacity="0.5" clip-path="url(#clip-path-4)">
            <path id="Path_345" data-name="Path 345" d="M-7.516,1.836H144.926V30.687H-7.516Zm0,0" transform="translate(-6.113 -0.32)" fill="#97dcda"/>
          </g>
          <g id="Group_834" data-name="Group 834" transform="translate(117 182.04)" opacity="0.5" clip-path="url(#clip-path-4)">
            <path id="Path_347" data-name="Path 347" d="M-7.516,1.836H144.926V30.687H-7.516Zm0,0" transform="translate(-6.113 -0.32)" fill="#97dcda"/>
          </g>
        </g>
        <g id="Group_831" data-name="Group 831" transform="translate(1204.059)">
          <g id="Group_118" data-name="Group 118">
            <g id="Group_117" data-name="Group 117">
              <g id="Group_116" data-name="Group 116" clip-path="url(#clip-path-9)">
                <g id="Group_115" data-name="Group 115" transform="translate(1.813)" clip-path="url(#clip-path-10)">
                  <path id="Path_66" data-name="Path 66" d="M1.023,0H153.465V28.851H1.023Zm0,0" transform="translate(-0.981)" fill="#fffc69"/>
                </g>
              </g>
            </g>
          </g>
          <path id="Path_68" data-name="Path 68" d="M749.09,744.91H901.538v28.85H749.09Zm0,0" transform="translate(-594.793 -716.06)" fill="#fffc69"/>
        </g>
      </g>
      <g id="ret-3" data-name="ret" transform="translate(150.734 740.114)">
        <path id="Path_69" data-name="Path 69" d="M138.074,735.129H237.71v18.862H138.074Zm0,0" transform="translate(-38.433 -735.129)" fill="#401942"/>
        <path id="Path_70" data-name="Path 70" d="M138.074,755.938H245.268v24.756H138.074Zm0,0" transform="translate(-38.433 -718.204)" fill="#401942"/>
        <path id="Path_71" data-name="Path 71" d="M138.074,776.746H261.062v18.862H138.074Zm0,0" transform="translate(-38.433 -701.28)" fill="#401942"/>
        <path id="Path_72" data-name="Path 72" d="M193.02,745.531h99.634V764.4H193.02Zm0,0" transform="translate(6.257 -726.669)" fill="#401942"/>
        <path id="Path_73" data-name="Path 73" d="M83.125,745.531h99.641V764.4H83.125Zm0,0" transform="translate(-83.125 -726.669)" fill="#401942"/>
        <path id="Path_74" data-name="Path 74" d="M193.02,766.34H305.7v18.869H193.02Zm0,0" transform="translate(6.257 -709.744)" fill="#401942"/>
        <path id="Path_75" data-name="Path 75" d="M193.02,787.148H313.054v18.871H193.02Zm0,0" transform="translate(6.257 -692.82)" fill="#401942"/>
        <path id="Path_76" data-name="Path 76" d="M138.074,806.191h298.94v11.328H138.074Zm0,0" transform="translate(-38.433 -677.331)" fill="#401942"/>
        <path id="Path_77" data-name="Path 77" d="M247.965,735.129H364.706v18.862H247.965Zm0,0" transform="translate(50.946 -735.129)" fill="#401942"/>
        <path id="Path_78" data-name="Path 78" d="M247.965,755.938H382.938V774.8H247.965Zm0,0" transform="translate(50.946 -718.204)" fill="#401942"/>
        <path id="Path_79" data-name="Path 79" d="M247.965,776.746H378.029v25.613H247.965Zm0,0" transform="translate(50.946 -701.28)" fill="#401942"/>
        <path id="Path_80" data-name="Path 80" d="M302.93,739.707H419.182v29.46H302.93Zm0,0" transform="translate(95.652 -731.406)" fill="#401942"/>
        <path id="Path_81" data-name="Path 81" d="M302.93,766.34H445.461v18.869H302.93Zm0,0" transform="translate(95.652 -709.744)" fill="#401942"/>
        <path id="Path_82" data-name="Path 82" d="M302.93,784.188H390.8v25.826H302.93Zm0,0" transform="translate(95.652 -695.227)" fill="#401942"/>
        <path id="Path_83" data-name="Path 83" d="M357.875,735.129H478.547v18.862H357.875Zm0,0" transform="translate(140.341 -735.129)" fill="#401942"/>
        <path id="Path_84" data-name="Path 84" d="M357.875,755.938h108.05V774.8H357.875Zm0,0" transform="translate(140.341 -718.204)" fill="#401942"/>
        <path id="Path_85" data-name="Path 85" d="M348.477,776.746H497.715v18.862H348.477Zm0,0" transform="translate(132.697 -701.28)" fill="#401942"/>
        <path id="Path_86" data-name="Path 86" d="M412.82,745.531H546.851v26.5H412.82Zm0,0" transform="translate(185.03 -726.669)" fill="#401942"/>
        <path id="Path_87" data-name="Path 87" d="M412.82,763.781H528.435v23.51H412.82Zm0,0" transform="translate(185.03 -711.825)" fill="#401942"/>
        <path id="Path_88" data-name="Path 88" d="M412.82,784.188h8.416V1007.9H412.82Zm0,0" transform="translate(185.03 -695.227)" fill="#401942"/>
      </g>
      <g id="Group_119" data-name="Group 119" transform="translate(761.207 834.442)" clip-path="url(#clip-path-11)">
        <path id="Path_89" data-name="Path 89" d="M419.781,787.148H428.2v41.438h-8.416Zm0,0" transform="translate(-419.781 -787.148)"/>
      </g>
      <g id="Group_832" data-name="Group 832" transform="translate(676.511 740.114)">
        <path id="Path_91" data-name="Path 91" d="M467.77,735.129H629.631v18.862H467.77Zm0,0" transform="translate(-296.054 -735.129)" fill="#401942"/>
        <path id="Path_92" data-name="Path 92" d="M467.77,755.938H577.285V774.8H467.77Zm0,0" transform="translate(-296.054 -718.204)" fill="#401942"/>
        <path id="Path_93" data-name="Path 93" d="M467.77,776.746H567.4v18.862H467.77Zm0,0" transform="translate(-296.054 -701.28)" fill="#401942"/>
        <path id="Path_94" data-name="Path 94" d="M522.715,745.531h99.634V764.4H522.715Zm0,0" transform="translate(-251.365 -726.669)" fill="#401942"/>
        <path id="Path_95" data-name="Path 95" d="M522.715,766.34H647.17v22.014H522.715Zm0,0" transform="translate(-251.365 -709.744)" fill="#401942"/>
        <path id="Path_96" data-name="Path 96" d="M522.715,785.281H647.17v22.257H522.715Zm0,0" transform="translate(-251.365 -694.338)" fill="#401942"/>
        <path id="Path_97" data-name="Path 97" d="M577.68,735.129H713.9v23.013H577.68Zm0,0" transform="translate(-206.659 -735.129)" fill="#401942"/>
        <path id="Path_98" data-name="Path 98" d="M577.68,754.523H690.97v21.463H577.68Zm0,0" transform="translate(-206.659 -719.355)" fill="#401942"/>
        <path id="Path_99" data-name="Path 99" d="M585.211,776.746h99.634v18.862H585.211Zm0,0" transform="translate(-200.534 -701.28)" fill="#401942"/>
        <path id="Path_100" data-name="Path 100" d="M585.211,806.41h6.283v21.214h-6.283Zm0,0" transform="translate(-200.534 -677.153)" fill="#401942"/>
        <path id="Path_101" data-name="Path 101" d="M632.625,800.617H925.253v3.237H632.625Zm0,0" transform="translate(-161.97 -681.865)" fill="#401942"/>
        <path id="Path_102" data-name="Path 102" d="M632.625,804.3H925.253v3.237H632.625Zm0,0" transform="translate(-161.97 -678.865)" fill="#401942"/>
        <path id="Path_103" data-name="Path 103" d="M632.625,807.992H925.253v3.237H632.625Zm0,0" transform="translate(-161.97 -675.867)" fill="#401942"/>
        <path id="Path_104" data-name="Path 104" d="M373.074,806.41h321.2v5.618h-321.2Zm0,0" transform="translate(-373.074 -677.153)" fill="#401942"/>
        <path id="Path_105" data-name="Path 105" d="M618.012,766.34H744.144v18.869H618.012Zm0,0" transform="translate(-173.855 -709.744)" fill="#401942"/>
        <path id="Path_106" data-name="Path 106" d="M632.625,787.148h99.634v18.871H632.625Zm0,0" transform="translate(-161.97 -692.82)" fill="#401942"/>
      </g>
    </g>
  </g>
</svg>
